<svg xmlns="http://www.w3.org/2000/svg" xmlns:xlink="http://www.w3.org/1999/xlink" viewBox="0 0 15.07 22.85"><defs><symbol id="sweet_lined" data-name="sweet_lined" viewBox="0 0 15.07 22.85"><path d="M11.92,6.65l.28-.23a8,8,0,0,0,2.87-4.15l-2.5.24-1-1.16-1.3.54L9.46.81l-1.4.56L6,0a7.76,7.76,0,0,0,.23,4.91l.18.51H6a7,7,0,0,0-3.92,4.72,6.39,6.39,0,0,0,1,5.51l.22.28L3,16.17a9.15,9.15,0,0,0-3,4.39l2.49-.23.95,1.12,1.3-.5L5.54,22,7,21.47l2,1.38a9.46,9.46,0,0,0-.13-5.25l-.1-.32.31-.13a7,7,0,0,0,3.92-4.62,6.41,6.41,0,0,0-.92-5.59ZM8.09,6A12.29,12.29,0,0,1,7,2.66l-.11-.93,1,.81,1.24-.49.86,1.08,1.31-.53.83,1,1.33-.24-.56.76A11.86,11.86,0,0,1,10,6.54,6.49,6.49,0,0,1,11.89,9.8,16.07,16.07,0,0,1,4.57,8.06,7.31,7.31,0,0,1,8.09,6Zm-1,10.5A10.45,10.45,0,0,1,8.21,20l.08.89L7.3,20,6,20.51,5.2,19.42,3.86,20l-.8-1-1.46.27.77-.83a15.13,15.13,0,0,1,2.79-2.34,6.06,6.06,0,0,1-2.1-4.16v-.15l.39.24a15.74,15.74,0,0,0,7.2,1.86h.46A6.86,6.86,0,0,1,7.08,16.53ZM12,10.88a4.89,4.89,0,0,1-.3,1.73h-.39a14.41,14.41,0,0,1-7.75-2l-.33-.22A4.93,4.93,0,0,1,3.91,8.9l0-.07a16.22,16.22,0,0,0,8,2H12Z"/></symbol></defs><g id="Layer_3" data-name="Layer 3"><use width="15.07" height="22.85" xlink:href="#sweet_lined"/></g></svg>