<svg id="Layer_1" data-name="Layer 1" xmlns="http://www.w3.org/2000/svg" xmlns:xlink="http://www.w3.org/1999/xlink" viewBox="0 0 16 24"><defs><style>.cls-1{fill-rule:evenodd;}</style><symbol id="Deleted_Symbol" data-name="Deleted Symbol" viewBox="0 0 24 24"><path class="cls-1" d="M5.79,15.24a6.81,6.81,0,0,1,.89-5.57,15.5,15.5,0,0,0,7.68,7.63,6.83,6.83,0,0,1-5.57.92A8.63,8.63,0,0,1,6.55,24l-.73-2.18-1.67-.21L4,20l-1.64-.18-.18-1.64L0,17.45a9.16,9.16,0,0,1,5.79-2.21m11.48-.83a8.91,8.91,0,0,1-1.95,2.2A14.63,14.63,0,0,1,7.37,8.69a9.48,9.48,0,0,1,2.2-1.95,15.5,15.5,0,0,0,7.7,7.67m-2-8.63A9.13,9.13,0,0,1,17.45,0l.73,2.18,1.64.18L20,4l1.61.15.21,1.67L24,6.55a8.63,8.63,0,0,1-5.78,2.24,6.52,6.52,0,0,1-.46,4.72,14.51,14.51,0,0,1-7.28-7.26,6.58,6.58,0,0,1,4.76-.47"/></symbol><symbol id="sweet" data-name="sweet" viewBox="0 0 16 24"><use width="24" height="24" transform="matrix(0.87, -0.38, 0.45, 0.83, -7.89, 6.63)" xlink:href="#Deleted_Symbol"/></symbol></defs><use width="16" height="24" xlink:href="#sweet"/></svg>