<svg id="Layer_1" data-name="Layer 1" xmlns="http://www.w3.org/2000/svg" xmlns:xlink="http://www.w3.org/1999/xlink" viewBox="0 0 16 24"><defs><style>.cls-1{fill:#1e1e1e;}</style><symbol id="shirt" data-name="shirt" viewBox="0 0 16 24"><g id="shirt-3" data-name="shirt"><path d="M14,5.4c0-.19-.41-1.71.68-4.75L11.51,0A4.41,4.41,0,0,1,8,2.07,4.24,4.24,0,0,1,4.49,0L1.36.65c1,3.14.69,4.58.66,4.75A6.22,6.22,0,0,1,0,9.07V24H16V9.07A6.21,6.21,0,0,1,14,5.4ZM8,3.07a4.76,4.76,0,0,0,3.19-1.29C10.78,3.6,9.93,6,8,6S5.23,3.6,4.82,1.78A4.79,4.79,0,0,0,8,3.07ZM15,23H1V9.52A7.47,7.47,0,0,0,3,5.59a10.35,10.35,0,0,0-.36-4.18L3.7,1.19C4.18,3.57,5.05,7,8,7s3.82-3.43,4.3-5.81l1.06.21A9.75,9.75,0,0,0,13,5.59a7.48,7.48,0,0,0,2,3.93Z"/><path class="cls-1" d="M15,9.52V23H1V9.52A7.47,7.47,0,0,0,3,5.59a10.35,10.35,0,0,0-.36-4.18L3.7,1.19C4.18,3.57,5.05,7,8,7s3.82-3.43,4.3-5.81l1.06.21A9.75,9.75,0,0,0,13,5.59,7.48,7.48,0,0,0,15,9.52Z"/></g></symbol></defs><use width="16" height="24" xlink:href="#shirt"/></svg>