<svg id="Layer_1" data-name="Layer 1" xmlns="http://www.w3.org/2000/svg" viewBox="0 0 16 24"><g id="shirt_lined"><path d="M11.5,0l3.17.65c-1.09,3-.72,4.56-.68,4.74a6.12,6.12,0,0,0,2,3.67V24H0V9.06A6.1,6.1,0,0,0,2,5.39c0-.16.39-1.6-.65-4.74L4.48,0A4.26,4.26,0,0,0,8,2.07,4.38,4.38,0,0,0,11.5,0ZM1,23H15V9.52a7.51,7.51,0,0,1-2-3.94,9.85,9.85,0,0,1,.36-4.18l-1.07-.21C11.82,3.56,11,7,8,7S4.17,3.56,3.7,1.18L2.64,1.4A10.37,10.37,0,0,1,3,5.58,7.51,7.51,0,0,1,1,9.52V23ZM4.81,1.77C5.22,3.6,6.07,6,8,6s2.77-2.41,3.18-4.22A4.78,4.78,0,0,1,8,3.06,4.74,4.74,0,0,1,4.81,1.77Z"/></g></svg>