<svg xmlns="http://www.w3.org/2000/svg" viewBox="0 0 16 24"><g id="Layer_2" data-name="Layer 2"><g id="Layer_1-2" data-name="Layer 1"><path d="M13.57,4h-3a.63.63,0,0,1-.57-.9L11.3.32,10.59,0l-2,3.69A.65.65,0,0,1,8.06,4H2.48a.59.59,0,0,0-.54.31A2.7,2.7,0,0,1,0,5.67v.69H1L3,23.44a.64.64,0,0,0,.63.56h8.67a.64.64,0,0,0,.63-.56L15,6.36h1V5.67a2.61,2.61,0,0,1-1.88-1.34A.6.6,0,0,0,13.57,4ZM11.22,22.7H4.79a.64.64,0,0,1-.63-.56L2.4,7.06A.63.63,0,0,1,3,6.36H13a.63.63,0,0,1,.63.7L11.85,22.14A.64.64,0,0,1,11.22,22.7Z"/><path d="M8.4,13.5a2,2,0,1,1-2-1.95A2,2,0,0,1,8.4,13.5Z"/><path d="M11,16.09a1.45,1.45,0,1,1-1.45-1.43A1.44,1.44,0,0,1,11,16.09Z"/><path d="M7.87,18.43A1.16,1.16,0,0,1,6.7,19.59a1.17,1.17,0,1,1,1.17-1.16Z"/></g></g></svg>