<svg id="Layer_1" data-name="Layer 1" xmlns="http://www.w3.org/2000/svg" xmlns:xlink="http://www.w3.org/1999/xlink" viewBox="0 0 16 24"><defs><style>.cls-1{fill-rule:evenodd;}</style><symbol id="drink" data-name="drink" viewBox="0 0 16 24"><path class="cls-1" d="M13,24H3L1,8H15L13,24ZM6.75,18.5a.75.75,0,1,1-.75.75.76.76,0,0,1,.75-.75ZM10,16a1,1,0,1,1-1,1,1,1,0,0,1,1-1ZM6.5,13A1.5,1.5,0,1,1,5,14.5,1.5,1.5,0,0,1,6.5,13ZM8.19,4l2.07-4,1.36.63L9.84,4H14c0,.92,1.09,1.62,2,1.62V7H0V5.62c.87,0,2-.7,2-1.62Z"/></symbol></defs><use width="16" height="24" xlink:href="#drink"/></svg>