<svg id="Layer_1" data-name="Layer 1" xmlns="http://www.w3.org/2000/svg" xmlns:xlink="http://www.w3.org/1999/xlink" viewBox="0 0 20.9 17.42"><defs><style>.cls-1{fill-rule:evenodd;}</style><symbol id="food" data-name="food" viewBox="0 0 24 20"><g id="food-3" data-name="food"><path class="cls-1" d="M1.23,13.4A3.78,3.78,0,0,1,0,10.75,3.76,3.76,0,0,1,3.22,7c2.87-.42,4,2.71,8.74,2.71,4.36,0,6-2.69,8.25-2.75A3.74,3.74,0,0,1,24,10.75a3.81,3.81,0,0,1-1.22,2.66C24.09,16.47,19.19,20,12,20,5.48,20-.24,16.76,1.23,13.4M21.42,12a1.73,1.73,0,0,0-1.21-3c-2,.14-1.81,2.11-2.81,2.53-.65.27-1.73-.35-2.4-.18s-1,1.26-1.77,1.37-1.56-1-2.23-1-1.57.91-2.4.69-1-1.41-2.46-2.29S4.37,8.9,3.5,9a1.74,1.74,0,0,0-.93,3,2.76,2.76,0,0,1,2.35,0c.85.4,3.4,2.49,7,2.49a12,12,0,0,0,5.75-1.64c1-.57,2-1.63,3.71-.84M10,8c3.38-3.23-.71-3.55.09-5.83C7.23,5.36,11.08,5.44,10,8m3,0c5.09-4.88-1-4.62.13-8C9,4.36,14.59,4.46,13,8"/></g></symbol></defs><use width="24" height="20" transform="scale(0.87)" xlink:href="#food"/></svg>